<?xml version="1.0" encoding="utf-8"?>
<!-- Generator: Adobe Illustrator 27.2.0, SVG Export Plug-In . SVG Version: 6.00 Build 0)  -->
<svg version="1.1" id="Laag_1" xmlns="http://www.w3.org/2000/svg" xmlns:xlink="http://www.w3.org/1999/xlink" x="0px" y="0px"
	 viewBox="0 0 54.2 25.3" style="enable-background:new 0 0 54.2 25.3;" xml:space="preserve">
<style type="text/css">
	.st0{enable-background:new    ;}
	.st1{fill:#1D1D1B;}
</style>
<g class="st0">
	<path class="st1" d="M6.1,7H2.9V3.7h10.2V7H9.9v6.5H6.1V7z"/>
	<path class="st1" d="M15.3,3.7h9.2v2.9h-5.3v0.7h5v2.5h-5v0.8h5.3v2.9h-9.2V3.7z"/>
	<path class="st1" d="M26.8,11.5V5.7c0-1.1,0.9-2,2-2H35c1.1,0,2,0.9,2,2v2.5h-3.8V7h-2.6v3.3h2.6V9h3.8v2.5c0,1.1-0.9,2-2,2h-6.2
		C27.6,13.5,26.8,12.6,26.8,11.5z"/>
	<path class="st1" d="M39.5,3.7h3.8V7h2.6V3.7h3.8v9.8h-3.8v-3.2h-2.6v3.2h-3.8V3.7z"/>
</g>
<g class="st0">
	<path class="st1" d="M3.2,14.5h2.7v2.3h1.8v-2.3h2.7v7H7.8v-2.3H5.9v2.3H3.2V14.5z"/>
	<path class="st1" d="M11.7,14.5h6.5v2.1h-3.8v0.5H18v1.8h-3.6v0.5h3.8v2.1h-6.5V14.5z"/>
	<path class="st1" d="M19.2,16c0-0.8,0.6-1.4,1.4-1.4h4.4c0.8,0,1.4,0.6,1.4,1.4v5.6h-2.7V20h-1.8v1.5h-2.7V16z M23.8,17.8v-1h-1.8
		v1H23.8z"/>
	<path class="st1" d="M28.1,19.6c-0.6-0.6-0.7-1.1-0.7-1.8v-3.3h2.7v3c0,0.7,0.3,1,0.7,1.5l0.2,0.2l0.2-0.2c0.4-0.5,0.7-0.7,0.7-1.4
		v-3h2.7v3.3c0,0.8-0.1,1.2-0.6,1.8l-1.8,1.9h-2.3L28.1,19.6z"/>
	<path class="st1" d="M35.6,14.5h6.5v2.1h-3.8v0.5h3.6v1.8h-3.6v0.5h3.8v2.1h-6.5V14.5z"/>
	<path class="st1" d="M43.1,14.5H49c0.8,0,1.4,0.6,1.4,1.4v5.6h-2.7v-4.6h-1.8v4.6h-2.7V14.5z"/>
</g>
</svg>
